HIERARCHY
ROOT Hips
{
	OFFSET 0.000000 103.266502 0.000000
	CHANNELS 6 Xposition Yposition Zposition Xrotation Yrotation Zrotation 
	JOINT Spine
	{
		OFFSET -0.002400 12.777504 0.315300
		CHANNELS 3 Xrotation Yrotation Zrotation
		JOINT Spine1
		{
			OFFSET -0.002067 5.816869 0.032633
			CHANNELS 3 Xrotation Yrotation Zrotation
			JOINT Spine1_split
			{
				OFFSET -0.002067 5.816869 0.032633
				CHANNELS 3 Xrotation Yrotation Zrotation
				JOINT Spine2
				{
					OFFSET -0.002067 5.816869 0.032633
					CHANNELS 3 Xrotation Yrotation Zrotation
					JOINT Neck
					{
						OFFSET -0.003700 21.199493 -0.826900
						CHANNELS 3 Xrotation Yrotation Zrotation
						JOINT Head
						{
							OFFSET 0.000000 20.442200 4.834800
							CHANNELS 3 Xrotation Yrotation Zrotation
							JOINT HeadTop_End
							{
								OFFSET 0.000000 34.668396 4.968400
								CHANNELS 3 Xrotation Yrotation Zrotation
								End Site
								{
									OFFSET 0.000000 0.000000 0.000000
								}
							}
						}
					}
					JOINT LeftShoulder
					{
						OFFSET 3.288150 8.794197 -1.372250
						CHANNELS 3 Xrotation Yrotation Zrotation
						JOINT LeftShoulder_split
						{
							OFFSET 3.288150 8.794197 -1.372250
							CHANNELS 3 Xrotation Yrotation Zrotation
							JOINT LeftArm
							{
								OFFSET 11.953299 -2.279007 -0.146200
								CHANNELS 3 Xrotation Yrotation Zrotation
								JOINT LeftForeArm
								{
									OFFSET 18.448900 0.000000 0.000000
									CHANNELS 3 Xrotation Yrotation Zrotation
									JOINT LeftHand
									{
										OFFSET 29.527798 0.000000 0.000000
										CHANNELS 3 Xrotation Yrotation Zrotation
										JOINT LeftHandThumb1
										{
											OFFSET 10.739754 -2.369614 9.225399
											CHANNELS 3 Xrotation Yrotation Zrotation
											JOINT LeftHandThumb2
											{
												OFFSET 4.926170 -2.844131 2.844125
												CHANNELS 3 Xrotation Yrotation Zrotation
												JOINT LeftHandThumb3
												{
													OFFSET 4.614891 -2.664413 2.664409
													CHANNELS 3 Xrotation Yrotation Zrotation
													JOINT LeftHandThumb4
													{
														OFFSET 4.432465 -2.559082 2.559083
														CHANNELS 3 Xrotation Yrotation Zrotation
														End Site
														{
															OFFSET 0.000000 0.000000 0.000000
														}
													}
												}
											}
										}
										JOINT LeftHandIndex1
										{
											OFFSET 26.467674 0.187653 6.405298
											CHANNELS 3 Xrotation Yrotation Zrotation
											JOINT LeftHandIndex2
											{
												OFFSET 8.792900 0.000000 0.000000
												CHANNELS 3 Xrotation Yrotation Zrotation
												JOINT LeftHandIndex3
												{
													OFFSET 10.075203 0.000000 0.000000
													CHANNELS 3 Xrotation Yrotation Zrotation
													End Site
													{
														OFFSET 0.000000 0.000000 0.000000
													}
												}
											}
										}
										JOINT LeftHandMiddle1
										{
											OFFSET 25.764404 0.000000 0.000000
											CHANNELS 3 Xrotation Yrotation Zrotation
											JOINT LeftHandMiddle2
											{
												OFFSET 9.393974 0.000000 0.000000
												CHANNELS 3 Xrotation Yrotation Zrotation
												JOINT LeftHandMiddle3
												{
													OFFSET 10.771950 0.000000 0.000000
													CHANNELS 3 Xrotation Yrotation Zrotation
													End Site
													{
														OFFSET 0.000000 0.000000 0.000000
													}
												}
											}
										}
										JOINT LeftHandRing1
										{
											OFFSET 24.660927 0.144547 -6.225808
											CHANNELS 3 Xrotation Yrotation Zrotation
											JOINT LeftHandRing2
											{
												OFFSET 9.393799 0.000000 0.000000
												CHANNELS 3 Xrotation Yrotation Zrotation
												JOINT LeftHandRing3
												{
													OFFSET 9.928497 0.000000 0.000000
													CHANNELS 3 Xrotation Yrotation Zrotation
													End Site
													{
														OFFSET 0.000000 0.000000 0.000000
													}
												}
											}
										}
										JOINT LeftHandPinky1
										{
											OFFSET 23.655350 0.125290 -12.815412
											CHANNELS 3 Xrotation Yrotation Zrotation
											JOINT LeftHandPinky2
											{
												OFFSET 8.425102 0.000000 0.000000
												CHANNELS 3 Xrotation Yrotation Zrotation
												JOINT LeftHandPinky3
												{
													OFFSET 8.147003 0.000000 0.000000
													CHANNELS 3 Xrotation Yrotation Zrotation
													End Site
													{
														OFFSET 0.000000 0.000000 0.000000
													}
												}
											}
										}
									}
								}
							}
						}
					}
					JOINT RightShoulder
					{
						OFFSET -3.249400 8.794197 -1.372250
						CHANNELS 3 Xrotation Yrotation Zrotation
						JOINT RightShoulder_split
						{
							OFFSET -3.249400 8.794197 -1.372250
							CHANNELS 3 Xrotation Yrotation Zrotation
							JOINT RightArm
							{
								OFFSET -11.953299 -2.279007 -0.146200
								CHANNELS 3 Xrotation Yrotation Zrotation
								JOINT RightForeArm
								{
									OFFSET -18.448900 0.000000 0.000000
									CHANNELS 3 Xrotation Yrotation Zrotation
									JOINT RightHand
									{
										OFFSET -29.527802 0.000000 0.000000
										CHANNELS 3 Xrotation Yrotation Zrotation
										JOINT RightHandThumb1
										{
											OFFSET -10.739754 -2.369614 9.225399
											CHANNELS 3 Xrotation Yrotation Zrotation
											JOINT RightHandThumb2
											{
												OFFSET -4.926170 -2.844131 2.844125
												CHANNELS 3 Xrotation Yrotation Zrotation
												JOINT RightHandThumb3
												{
													OFFSET -4.614891 -2.664413 2.664409
													CHANNELS 3 Xrotation Yrotation Zrotation
													JOINT RightHandThumb4
													{
														OFFSET -4.432465 -2.559082 2.559083
														CHANNELS 3 Xrotation Yrotation Zrotation
														End Site
														{
															OFFSET 0.000000 0.000000 0.000000
														}
													}
												}
											}
										}
										JOINT RightHandIndex1
										{
											OFFSET -26.467674 0.187653 6.405298
											CHANNELS 3 Xrotation Yrotation Zrotation
											JOINT RightHandIndex2
											{
												OFFSET -8.792900 0.000000 0.000000
												CHANNELS 3 Xrotation Yrotation Zrotation
												JOINT RightHandIndex3
												{
													OFFSET -10.075203 0.000000 0.000000
													CHANNELS 3 Xrotation Yrotation Zrotation
													End Site
													{
														OFFSET 0.000000 0.000000 0.000000
													}
												}
											}
										}
										JOINT RightHandMiddle1
										{
											OFFSET -25.764404 0.000000 0.000000
											CHANNELS 3 Xrotation Yrotation Zrotation
											JOINT RightHandMiddle2
											{
												OFFSET -9.393974 0.000000 0.000000
												CHANNELS 3 Xrotation Yrotation Zrotation
												JOINT RightHandMiddle3
												{
													OFFSET -10.771950 0.000000 0.000000
													CHANNELS 3 Xrotation Yrotation Zrotation
													End Site
													{
														OFFSET 0.000000 0.000000 0.000000
													}
												}
											}
										}
										JOINT RightHandRing1
										{
											OFFSET -24.660927 0.144547 -6.225808
											CHANNELS 3 Xrotation Yrotation Zrotation
											JOINT RightHandRing2
											{
												OFFSET -9.393799 0.000000 0.000000
												CHANNELS 3 Xrotation Yrotation Zrotation
												JOINT RightHandRing3
												{
													OFFSET -9.928497 0.000000 0.000000
													CHANNELS 3 Xrotation Yrotation Zrotation
													End Site
													{
														OFFSET 0.000000 0.000000 0.000000
													}
												}
											}
										}
										JOINT RightHandPinky1
										{
											OFFSET -23.655350 0.125290 -12.815412
											CHANNELS 3 Xrotation Yrotation Zrotation
											JOINT RightHandPinky2
											{
												OFFSET -8.425102 0.000000 0.000000
												CHANNELS 3 Xrotation Yrotation Zrotation
												JOINT RightHandPinky3
												{
													OFFSET -8.147003 0.000000 0.000000
													CHANNELS 3 Xrotation Yrotation Zrotation
													End Site
													{
														OFFSET 0.000000 0.000000 0.000000
													}
												}
											}
										}
									}
								}
							}
						}
					}
				}
			}
		}
	}
	JOINT LeftUpLeg
	{
		OFFSET 11.394100 -6.187798 -0.413800
		CHANNELS 3 Xrotation Yrotation Zrotation
		JOINT LeftLeg
		{
			OFFSET 0.430247 -32.302673 3.732800
			CHANNELS 3 Xrotation Yrotation Zrotation
			JOINT LeftFoot
			{
				OFFSET -0.430247 -48.264931 -6.423300
				CHANNELS 3 Xrotation Yrotation Zrotation
				JOINT LeftToeBase
				{
					OFFSET 4.230900 -16.068199 23.438400
					CHANNELS 3 Xrotation Yrotation Zrotation
					JOINT LeftToe_End
					{
						OFFSET 4.510700 0.695400 19.974600
						CHANNELS 3 Xrotation Yrotation Zrotation
						End Site
						{
							OFFSET 0.000000 0.000000 0.000000
						}
					}
				}
			}
		}
	}
	JOINT RightUpLeg
	{
		OFFSET -11.333700 -6.187798 -0.413800
		CHANNELS 3 Xrotation Yrotation Zrotation
		JOINT RightLeg
		{
			OFFSET -0.430392 -32.302628 3.733000
			CHANNELS 3 Xrotation Yrotation Zrotation
			JOINT RightFoot
			{
				OFFSET 0.430392 -48.264973 -6.423500
				CHANNELS 3 Xrotation Yrotation Zrotation
				JOINT RightToeBase
				{
					OFFSET -4.230900 -16.068199 23.438400
					CHANNELS 3 Xrotation Yrotation Zrotation
					JOINT RightToe_End
					{
						OFFSET -4.510700 0.695400 19.974600
						CHANNELS 3 Xrotation Yrotation Zrotation
						End Site
						{
							OFFSET 0.000000 0.000000 0.000000
						}
					}
				}
			}
		}
	}
}
MOTION
Frames: 6
Frame Time: 0.016667
-0.417838 85.632553 0.299595 11.705711 -49.521696 11.404197 10.976351 2.848651 -2.161200 6.100714 5.566533 -4.284692 0.000000 0.000000 0.000000 -5.786927 6.328147 -3.046189 2.317277 9.363496 -0.265712 -4.145192 23.161796 -3.522661 -0.000000 -0.000000 0.000000 -1.915070 -16.511786 -2.939002 0.000000 0.000000 0.000000 -10.486664 2.625045 -45.366345 -22.934648 -26.042299 -16.052428 2.486701 -2.421337 6.911734 18.458434 -9.511647 13.216065 -1.151052 11.255603 -8.390542 5.706538 8.483133 -0.820714 0.000002 0.000002 -0.000003 -1.232392 -5.767188 -0.192352 0.133059 -0.208725 -4.601630 -0.000001 0.000000 0.000000 1.879044 4.660581 -4.596722 0.488043 -1.011730 -12.986310 0.000002 0.000002 -0.000002 3.021272 7.938970 -14.102994 -0.721406 -0.564643 -18.895737 0.000000 0.000000 0.000001 2.009205 6.305994 -22.386392 -0.833129 -0.206644 -16.746473 0.000002 0.000001 -0.000002 -5.102366 24.651539 1.530439 0.000000 0.000000 0.000000 6.852334 -35.149963 57.689233 -21.079506 44.888918 20.016972 -0.116048 35.721213 7.538553 55.149577 18.649519 -29.698284 -0.442578 -14.180521 7.313135 21.666979 -29.244503 9.142386 0.000000 -0.000000 -0.000002 5.673374 7.585034 36.844178 1.050471 3.824471 68.900257 -0.000000 -0.000002 0.000000 -0.125676 1.886098 45.000773 -1.169006 3.204661 68.417622 -0.000000 -0.000001 -0.000001 -5.312001 1.216633 58.508821 -0.745205 1.667589 48.011295 -0.000000 0.000000 0.000000 -7.756833 -9.376456 47.264001 -0.526034 1.541562 45.600518 -0.000003 -0.000002 0.000003 -68.323912 24.998462 43.261995 44.539998 -19.584821 3.202624 7.533941 0.566180 -11.518417 -0.804090 -6.108612 0.925782 -0.000000 -0.000001 0.000000 -38.056769 1.958858 -24.202468 52.399313 1.036461 -6.829729 -21.043475 -1.758083 25.309519 0.528313 2.970119 1.471348 -0.000000 0.000001 -0.000000 
-0.138885 85.756844 0.118501 11.745811 -49.403974 11.229446 10.659307 2.886678 -1.835857 6.270520 5.497045 -4.598448 0.000000 0.000000 0.000000 -5.595392 6.320232 -3.336133 2.640505 9.509905 -0.611379 -4.329309 23.155528 -3.472936 0.000002 0.000000 0.000000 -1.910400 -16.163883 -3.090428 0.000000 0.000000 0.000000 -12.030261 0.880596 -45.319176 -21.770892 -23.471151 -14.157623 2.477861 -3.270589 5.936785 18.463963 -9.514384 13.212517 -1.112713 11.306110 -8.396343 5.706537 8.483136 -0.820709 -0.000001 0.000002 -0.000001 -1.232404 -5.775700 -0.414984 0.131524 -0.226374 -4.993313 0.000000 0.000002 -0.000002 1.878204 4.643268 -4.856706 0.484486 -1.023649 -13.186621 -0.000002 0.000002 -0.000000 3.018637 7.917237 -14.361899 -0.723410 -0.572777 -19.096341 0.000003 0.000002 0.000001 2.005601 6.286230 -22.645475 -0.834522 -0.216361 -16.947021 0.000001 -0.000003 0.000000 -5.012405 24.293286 1.216170 0.000000 0.000000 0.000000 6.254670 -34.836458 57.425628 -21.507378 44.701153 20.437191 -0.231539 33.998417 6.851910 55.149580 18.649517 -29.698281 -0.442581 -14.180521 7.313131 21.666979 -29.244497 9.142384 0.000000 -0.000000 -0.000001 5.673383 7.585034 36.844178 1.050470 3.824467 68.900257 -0.000001 -0.000003 0.000000 -0.125676 1.886104 45.000773 -1.169005 3.204664 68.417622 -0.000000 0.000001 -0.000001 -5.311997 1.216634 58.508821 -0.745205 1.667588 48.011298 0.000002 0.000000 0.000000 -7.756832 -9.376457 47.263997 -0.526034 1.541559 45.600518 -0.000002 0.000002 -0.000004 -68.452313 25.013611 43.151687 44.122179 -19.698793 3.165151 7.909853 0.595914 -11.351074 -0.804337 -6.108621 0.925387 -0.000000 0.000000 -0.000000 -38.079814 1.904590 -23.865991 52.111505 0.808414 -6.914378 -20.814344 -1.900108 25.358553 0.626260 3.137361 1.326308 -0.000000 -0.000001 0.000000 
0.137446 85.881653 -0.137265 11.586788 -49.356275 11.138384 10.777642 2.806302 -1.989681 6.253147 5.455813 -4.730127 0.000000 0.000000 0.000000 -5.604860 6.319120 -3.448270 2.918543 9.797427 -0.772801 -4.285428 23.230981 -3.582201 0.000002 -0.000000 0.000000 -1.950322 -16.377031 -3.316430 0.000000 0.000000 0.000000 -12.793717 0.478102 -45.036181 -20.515370 -22.352264 -13.137832 2.462300 -3.387136 5.660582 18.481177 -9.516243 13.200825 -1.002058 11.451896 -8.413322 5.706539 8.483135 -0.820704 -0.000001 0.000001 0.000000 -1.232751 -5.800253 -1.059684 0.126471 -0.277055 -6.121601 -0.000001 0.000000 0.000000 1.875570 4.593689 -5.610058 0.475101 -1.053470 -13.766682 0.000000 0.000001 -0.000001 3.010632 7.854308 -15.112296 -0.730646 -0.599776 -19.676447 0.000002 0.000000 0.000000 1.991118 6.229263 -23.395831 -0.839740 -0.247700 -17.526889 0.000004 -0.000001 -0.000001 -4.920681 23.574266 1.114867 0.000000 0.000000 0.000000 5.639813 -34.678059 56.669659 -22.473115 45.269609 21.754019 0.157399 31.484006 5.855151 55.149577 18.649516 -29.698287 -0.442579 -14.180525 7.313132 21.666979 -29.244503 9.142386 -0.000000 0.000001 0.000000 5.673381 7.585029 36.844178 1.050470 3.824476 68.900250 -0.000001 -0.000001 0.000001 -0.125672 1.886095 45.000770 -1.169005 3.204666 68.417622 0.000001 -0.000000 0.000002 -5.312000 1.216637 58.508814 -0.745205 1.667589 48.011302 0.000001 -0.000001 0.000000 -7.756833 -9.376459 47.263997 -0.526034 1.541561 45.600515 0.000002 0.000001 0.000000 -68.290697 25.300851 42.923340 43.518960 -19.882518 3.109466 8.354843 0.731002 -11.232579 -0.804300 -6.108606 0.925406 -0.000000 -0.000000 -0.000000 -38.148171 1.957822 -23.723267 52.022546 0.851873 -7.001190 -20.684531 -2.076172 25.270445 0.691036 3.168749 1.304238 0.000000 0.000003 0.000000 
0.414763 86.006035 -0.436252 11.448972 -49.451676 11.084694 10.910782 2.688535 -2.151158 6.255489 5.389543 -4.873393 0.000000 0.000000 0.000000 -5.586807 6.304870 -3.562660 3.088685 10.429332 -1.660138 -4.392337 23.236802 -3.332444 0.000001 -0.000000 -0.000000 -2.019131 -15.755245 -4.014504 0.000000 0.000000 0.000000 -14.105704 -0.623452 -44.437638 -18.714575 -20.851309 -11.947953 2.441562 -3.378185 5.069727 18.508523 -9.519154 13.182196 -0.822727 11.681124 -8.439631 5.706540 8.483136 -0.820705 -0.000000 0.000001 -0.000003 -1.233367 -5.834170 -2.091538 0.116406 -0.357560 -7.916967 0.000002 0.000003 -0.000002 1.870198 4.511115 -6.816994 0.462238 -1.098895 -14.694428 0.000002 0.000000 0.000000 2.992139 7.754491 -16.314023 -0.744045 -0.646162 -20.604043 -0.000003 -0.000000 0.000001 1.966469 6.138875 -24.598177 -0.848838 -0.297645 -18.454234 0.000001 -0.000001 -0.000000 -4.713509 23.018400 0.781703 0.000000 0.000000 0.000000 5.134850 -34.583106 56.017025 -23.493885 45.872107 23.282988 0.566520 28.887360 4.638295 55.149580 18.649521 -29.698287 -0.442579 -14.180521 7.313130 21.666977 -29.244497 9.142387 0.000001 0.000001 0.000000 5.673378 7.585032 36.844178 1.050471 3.824473 68.900250 0.000001 -0.000003 -0.000001 -0.125674 1.886099 45.000773 -1.169006 3.204664 68.417622 0.000000 0.000002 -0.000002 -5.312001 1.216637 58.508821 -0.745203 1.667589 48.011295 0.000002 -0.000002 0.000003 -7.756833 -9.376461 47.263994 -0.526032 1.541561 45.600518 0.000002 0.000000 0.000001 -68.058573 25.586637 42.742146 42.863221 -20.037359 3.051038 8.812239 0.944745 -11.187664 -0.804505 -6.108617 0.925161 -0.000000 -0.000000 -0.000000 -38.440072 1.868462 -23.679434 52.039129 1.151000 -7.074948 -20.599439 -2.202968 25.053655 1.092832 3.313948 1.212990 -0.000000 0.000000 0.000000 
0.683163 86.127235 -0.774651 11.514605 -50.021737 11.224274 10.973343 2.550199 -2.224490 6.354285 5.276284 -5.097349 0.000000 0.000000 0.000000 -5.456692 6.268707 -3.745262 3.317685 11.210755 -2.259805 -4.432832 23.483659 -3.578626 0.000001 0.000000 0.000000 -1.995280 -14.975007 -4.449680 0.000000 0.000000 0.000000 -15.399642 -1.800120 -44.184811 -16.719345 -18.848431 -10.461572 2.445822 -3.416955 4.703626 18.545002 -9.523109 13.157293 -0.583310 11.986407 -8.475808 5.706538 8.483136 -0.820703 -0.000001 0.000002 -0.000001 -1.235141 -5.876083 -3.475764 0.099074 -0.464186 -10.309388 -0.000000 0.000000 0.000000 1.861495 4.401139 -8.437935 0.444004 -1.159379 -15.937560 -0.000001 -0.000000 -0.000001 2.964568 7.622252 -17.927869 -0.763938 -0.709168 -21.846864 0.000006 -0.000000 -0.000001 1.930704 6.019439 -26.212880 -0.867933 -0.363441 -19.696818 0.000002 -0.000001 0.000001 -4.584624 21.996481 0.859059 0.000000 0.000000 0.000000 3.917473 -34.011067 54.545764 -24.794654 47.064313 25.390631 1.270065 25.477664 3.269682 55.149577 18.649524 -29.698281 -0.442579 -14.180520 7.313131 21.666979 -29.244503 9.142386 -0.000000 0.000001 -0.000001 5.673378 7.585031 36.844178 1.050471 3.824470 68.900250 0.000000 -0.000000 -0.000001 -0.125676 1.886099 45.000770 -1.169005 3.204658 68.417622 0.000001 -0.000001 0.000002 -5.311997 1.216634 58.508821 -0.745204 1.667587 48.011298 -0.000002 -0.000001 0.000003 -7.756827 -9.376458 47.263997 -0.526035 1.541560 45.600522 0.000003 -0.000001 0.000002 -67.708956 25.792543 42.747422 42.200744 -19.847594 3.011895 9.180216 1.210770 -11.346545 -0.804068 -6.108599 0.925764 -0.000000 -0.000000 -0.000000 -38.929988 2.155992 -23.322009 52.113527 1.601836 -7.178924 -20.477399 -2.323551 24.747589 1.275886 3.411959 1.140811 0.000000 0.000001 0.000000 
0.940320 86.243385 -1.151957 11.853670 -51.299891 11.618765 10.974901 2.389746 -2.220720 6.476594 5.132117 -5.328441 0.000000 0.000000 0.000000 -5.296073 6.214250 -3.930848 3.584029 12.331276 -3.379897 -4.754184 23.833788 -3.763397 0.000002 0.000000 -0.000000 -2.015814 -14.208177 -5.194969 0.000000 0.000000 0.000000 -16.027710 -2.045547 -43.591148 -14.809448 -17.988029 -9.625016 2.437481 -2.904195 4.341621 18.589446 -9.527871 13.127005 -0.292534 12.359937 -8.517089 5.706537 8.483134 -0.820708 0.000000 0.000001 0.000001 -1.239089 -5.928154 -5.177460 0.071930 -0.593227 -13.229293 0.000000 -0.000002 0.000001 1.843020 4.267581 -10.432702 0.419859 -1.233188 -17.464088 -0.000003 -0.000001 0.000001 2.926046 7.462793 -19.914224 -0.790663 -0.785846 -23.373107 0.000000 0.000002 -0.000000 1.882547 5.875704 -28.200463 -0.893348 -0.443624 -21.222672 0.000001 0.000000 0.000001 -4.353526 21.112396 0.723915 0.000000 0.000000 0.000000 2.380103 -32.998751 52.973451 -26.151850 48.354362 27.701413 2.106524 21.725669 1.792180 55.149577 18.649519 -29.698281 -0.442580 -14.180523 7.313131 21.666981 -29.244497 9.142385 -0.000000 0.000000 -0.000000 5.673376 7.585034 36.844175 1.050471 3.824474 68.900250 -0.000000 -0.000002 -0.000001 -0.125677 1.886099 45.000773 -1.169006 3.204669 68.417622 -0.000002 0.000001 -0.000003 -5.312001 1.216636 58.508821 -0.745204 1.667587 48.011298 -0.000003 0.000000 0.000003 -7.756833 -9.376458 47.263994 -0.526033 1.541562 45.600518 -0.000002 0.000000 0.000004 -67.181522 25.873764 43.055545 41.572131 -19.105187 3.007789 9.398941 1.499608 -11.787854 -0.804323 -6.108624 0.925345 -0.000000 -0.000000 -0.000000 -39.868265 2.713603 -22.846658 52.253184 2.648462 -7.281964 -19.867094 -2.361006 24.867175 1.605947 3.576994 1.020004 -0.000000 0.000001 0.000000 
